# xmcd
#
# Track frame offsets:
#	150
#	4681
#	20156
#	38349
#	51483
#	56612
#	60395
#	68294
#	72381
#	85479
#	89293
#	95216
#	98756
#	108418
#	111652
#	121804
#	123892
#	128002
#	130878
#	139389
#	145533
#	159329
#	161039
#
# Disc length: 2258 seconds
#
# Revision: 1
# Processed by: cddbd v1.5.2PL0 Copyright (c) Steve Scherf et al.
# Submitted via: audiograbber 1.83.01
#
DISCID=3e08d017
DTITLE=Diverse - Leo Lionni - Das kleine Blau und das kleine Gelb
DYEAR=2008
DGENRE=Hörbuch
TTITLE0=Das kleine Blau und das kleine Gelb 1
TTITLE1=Das kleine Blau und das kleine Gelb 2
TTITLE2=Das kleine Blau und das kleine Gelb 3
TTITLE3=Das kleine Blau und das kleine Gelb 4
TTITLE4=Das kleine Blau und das kleine Gelb 5 -Musik: Blau-Gelb-Grün
TTITLE5=Eisbär und Pinguin (zwei Welten)
TTITLE6=Musik: Der kleine Troll
TTITLE7=Schnauz und Miez
TTITLE8=Musik: Mein verrückters Haus
TTITLE9=Eisbär und Pinguin (Urlaub)
TTITLE10=Musik: Sechs kleine Enten
TTITLE11=Das neue Spiel
TTITLE12=Musik: Mein Geheimnis
TTITLE13=Herr Löffel und Frau Gabel
TTITLE14=Musik: Das freche Kind
TTITLE15=Eisbär und Pinguin (Schmusen)
TTITLE16=Musik: John und Jörg
TTITLE17=Von dem großen Elefanten
TTITLE18=Musik: Toni Makkaroni
TTITLE19=Euch süße Gesichter
TTITLE20=Musik: Die Grille Ciciri
TTITLE21=Eisbär und Pinguin (Schlafen)
TTITLE22=Musik: Hätt ich einen Esel
EXTD=
EXTT0=
EXTT1=
EXTT2=
EXTT3=
EXTT4=
EXTT5=
EXTT6=
EXTT7=
EXTT8=
EXTT9=
EXTT10=
EXTT11=
EXTT12=
EXTT13=
EXTT14=
EXTT15=
EXTT16=
EXTT17=
EXTT18=
EXTT19=
EXTT20=
EXTT21=
EXTT22=
PLAYORDER=
